<mxfile host="app.diagrams.net" agent="Mozilla/5.0 (Windows NT 10.0; Win64; x64) AppleWebKit/537.36 (KHTML, like Gecko) Chrome/135.0.0.0 Safari/537.36" version="26.2.14">
  <diagram name="Page-1" id="Sceu52zE5NfIEcv7UyxO">
    <mxGraphModel dx="1330" dy="479" grid="1" gridSize="10" guides="1" tooltips="1" connect="1" arrows="1" fold="1" page="1" pageScale="1" pageWidth="850" pageHeight="1100" math="0" shadow="0">
      <root>
        <mxCell id="0" />
        <mxCell id="1" parent="0" />
        <mxCell id="eTJKf96mVt2TMEfFKhQ7-1" value="Owner" style="swimlane;whiteSpace=wrap;html=1;startSize=23;" vertex="1" parent="1">
          <mxGeometry x="200" y="40" width="200" height="440" as="geometry" />
        </mxCell>
        <mxCell id="eTJKf96mVt2TMEfFKhQ7-5" style="edgeStyle=orthogonalEdgeStyle;rounded=0;orthogonalLoop=1;jettySize=auto;html=1;exitX=0.5;exitY=1;exitDx=0;exitDy=0;entryX=0.5;entryY=0;entryDx=0;entryDy=0;" edge="1" parent="eTJKf96mVt2TMEfFKhQ7-1" source="eTJKf96mVt2TMEfFKhQ7-3" target="eTJKf96mVt2TMEfFKhQ7-4">
          <mxGeometry relative="1" as="geometry" />
        </mxCell>
        <mxCell id="eTJKf96mVt2TMEfFKhQ7-3" value="" style="ellipse;html=1;shape=endState;strokeColor=none;" vertex="1" parent="eTJKf96mVt2TMEfFKhQ7-1">
          <mxGeometry x="85" y="30" width="30" height="30" as="geometry" />
        </mxCell>
        <mxCell id="eTJKf96mVt2TMEfFKhQ7-7" style="edgeStyle=orthogonalEdgeStyle;rounded=0;orthogonalLoop=1;jettySize=auto;html=1;exitX=0.5;exitY=1;exitDx=0;exitDy=0;entryX=0.5;entryY=0;entryDx=0;entryDy=0;" edge="1" parent="eTJKf96mVt2TMEfFKhQ7-1" source="eTJKf96mVt2TMEfFKhQ7-4" target="eTJKf96mVt2TMEfFKhQ7-6">
          <mxGeometry relative="1" as="geometry" />
        </mxCell>
        <mxCell id="eTJKf96mVt2TMEfFKhQ7-4" value="Give Information" style="rounded=1;whiteSpace=wrap;html=1;" vertex="1" parent="eTJKf96mVt2TMEfFKhQ7-1">
          <mxGeometry x="40" y="80" width="120" height="60" as="geometry" />
        </mxCell>
        <mxCell id="eTJKf96mVt2TMEfFKhQ7-11" style="edgeStyle=orthogonalEdgeStyle;rounded=0;orthogonalLoop=1;jettySize=auto;html=1;exitX=0.5;exitY=1;exitDx=0;exitDy=0;entryX=0.5;entryY=0;entryDx=0;entryDy=0;" edge="1" parent="eTJKf96mVt2TMEfFKhQ7-1" source="eTJKf96mVt2TMEfFKhQ7-6" target="eTJKf96mVt2TMEfFKhQ7-10">
          <mxGeometry relative="1" as="geometry" />
        </mxCell>
        <mxCell id="eTJKf96mVt2TMEfFKhQ7-6" value="Use existing?" style="rhombus;whiteSpace=wrap;html=1;" vertex="1" parent="eTJKf96mVt2TMEfFKhQ7-1">
          <mxGeometry x="60" y="160" width="80" height="80" as="geometry" />
        </mxCell>
        <mxCell id="eTJKf96mVt2TMEfFKhQ7-10" value="Select existing" style="rounded=1;whiteSpace=wrap;html=1;" vertex="1" parent="eTJKf96mVt2TMEfFKhQ7-1">
          <mxGeometry x="40" y="260" width="120" height="60" as="geometry" />
        </mxCell>
        <mxCell id="eTJKf96mVt2TMEfFKhQ7-2" value="System" style="swimlane;whiteSpace=wrap;html=1;" vertex="1" parent="1">
          <mxGeometry x="400" y="40" width="200" height="440" as="geometry" />
        </mxCell>
        <mxCell id="eTJKf96mVt2TMEfFKhQ7-16" style="edgeStyle=orthogonalEdgeStyle;rounded=0;orthogonalLoop=1;jettySize=auto;html=1;exitX=1;exitY=0.5;exitDx=0;exitDy=0;entryX=1;entryY=0.5;entryDx=0;entryDy=0;" edge="1" parent="eTJKf96mVt2TMEfFKhQ7-2" source="eTJKf96mVt2TMEfFKhQ7-9" target="eTJKf96mVt2TMEfFKhQ7-14">
          <mxGeometry relative="1" as="geometry" />
        </mxCell>
        <mxCell id="eTJKf96mVt2TMEfFKhQ7-9" value="Create dashboard" style="rounded=1;whiteSpace=wrap;html=1;" vertex="1" parent="eTJKf96mVt2TMEfFKhQ7-2">
          <mxGeometry x="40" y="170" width="120" height="60" as="geometry" />
        </mxCell>
        <mxCell id="eTJKf96mVt2TMEfFKhQ7-15" style="edgeStyle=orthogonalEdgeStyle;rounded=0;orthogonalLoop=1;jettySize=auto;html=1;exitX=0.5;exitY=1;exitDx=0;exitDy=0;entryX=0.5;entryY=0;entryDx=0;entryDy=0;" edge="1" parent="eTJKf96mVt2TMEfFKhQ7-2" source="eTJKf96mVt2TMEfFKhQ7-13" target="eTJKf96mVt2TMEfFKhQ7-14">
          <mxGeometry relative="1" as="geometry" />
        </mxCell>
        <mxCell id="eTJKf96mVt2TMEfFKhQ7-13" value="Update dashboard" style="rounded=1;whiteSpace=wrap;html=1;" vertex="1" parent="eTJKf96mVt2TMEfFKhQ7-2">
          <mxGeometry x="40" y="260" width="120" height="60" as="geometry" />
        </mxCell>
        <mxCell id="eTJKf96mVt2TMEfFKhQ7-14" value="" style="ellipse;html=1;shape=endState;" vertex="1" parent="eTJKf96mVt2TMEfFKhQ7-2">
          <mxGeometry x="85" y="350" width="30" height="30" as="geometry" />
        </mxCell>
        <mxCell id="eTJKf96mVt2TMEfFKhQ7-8" style="edgeStyle=orthogonalEdgeStyle;rounded=0;orthogonalLoop=1;jettySize=auto;html=1;exitX=1;exitY=0.5;exitDx=0;exitDy=0;entryX=0;entryY=0.5;entryDx=0;entryDy=0;" edge="1" parent="1" source="eTJKf96mVt2TMEfFKhQ7-6" target="eTJKf96mVt2TMEfFKhQ7-9">
          <mxGeometry relative="1" as="geometry">
            <mxPoint x="430" y="240" as="targetPoint" />
          </mxGeometry>
        </mxCell>
        <mxCell id="eTJKf96mVt2TMEfFKhQ7-12" style="edgeStyle=orthogonalEdgeStyle;rounded=0;orthogonalLoop=1;jettySize=auto;html=1;exitX=1;exitY=0.5;exitDx=0;exitDy=0;entryX=0;entryY=0.5;entryDx=0;entryDy=0;entryPerimeter=0;" edge="1" parent="1" source="eTJKf96mVt2TMEfFKhQ7-10" target="eTJKf96mVt2TMEfFKhQ7-13">
          <mxGeometry relative="1" as="geometry">
            <mxPoint x="440" y="330" as="targetPoint" />
          </mxGeometry>
        </mxCell>
      </root>
    </mxGraphModel>
  </diagram>
</mxfile>
